<?xml version="1.0" encoding="UTF-8" standalone="no"?>
<!DOCTYPE svg PUBLIC "-//W3C//DTD SVG 1.1//EN" "http://www.w3.org/Graphics/SVG/1.1/DTD/svg11.dtd">
<svg width="100%" height="100%" viewBox="0 0 610 309" version="1.1" xmlns="http://www.w3.org/2000/svg" xmlns:xlink="http://www.w3.org/1999/xlink" xml:space="preserve" xmlns:serif="http://www.serif.com/" style="fill-rule:evenodd;clip-rule:evenodd;stroke-linejoin:round;stroke-miterlimit:2;">
    <g transform="matrix(1,0,0,1,-228.713,-179.709)">
        <g id="Artboard2" transform="matrix(1,0,0,1,1115.52,0)">
            <rect x="-1115.52" y="0" width="1080.14" height="768" style="fill:none;"/>
            <g transform="matrix(0.997066,0,0,1.06784,-1040.61,-15.5345)">
                <path d="M745.992,182.839C751.312,182.839 756.414,184.812 760.176,188.325C763.938,191.837 766.051,196.601 766.051,201.568C766.051,239.906 766.051,326.933 766.051,365.271C766.051,370.238 763.938,375.002 760.176,378.514C756.414,382.027 751.312,384 745.992,384C653.298,384 267.009,384 174.315,384C168.995,384 163.893,382.027 160.131,378.514C156.369,375.002 154.256,370.238 154.256,365.271C154.256,326.933 154.256,239.906 154.256,201.568C154.256,196.601 156.369,191.837 160.131,188.325C163.893,184.812 168.995,182.839 174.315,182.839C267.009,182.839 653.298,182.839 745.992,182.839Z" style="fill:rgb(139,93,244);"/>
            </g>
            <g transform="matrix(7.41354,0,0,7.41354,-3347.06,-1566.94)">
                <path d="M341.338,248.759L335.77,248.759C335.618,248.759 335.508,248.725 335.44,248.657C335.372,248.589 335.338,248.479 335.338,248.327L335.338,240.551C335.338,240.399 335.372,240.289 335.44,240.221C335.508,240.153 335.618,240.119 335.77,240.119L341.338,240.119C341.49,240.119 341.6,240.153 341.668,240.221C341.736,240.289 341.77,240.399 341.77,240.551L341.77,241.955C341.77,242.107 341.736,242.217 341.668,242.285C341.6,242.353 341.49,242.387 341.338,242.387L338.026,242.387L338.026,243.311L340.366,243.311C340.518,243.311 340.628,243.345 340.696,243.413C340.764,243.481 340.798,243.591 340.798,243.743L340.798,245.027C340.798,245.179 340.764,245.289 340.696,245.357C340.628,245.425 340.518,245.459 340.366,245.459L338.026,245.459L338.026,246.491L341.338,246.491C341.49,246.491 341.6,246.525 341.668,246.593C341.736,246.661 341.77,246.771 341.77,246.923L341.77,248.327C341.77,248.479 341.736,248.589 341.668,248.657C341.6,248.725 341.49,248.759 341.338,248.759Z" style="fill-rule:nonzero;"/>
                <path d="M347.842,248.759L345.898,248.759C345.746,248.759 345.636,248.725 345.568,248.657C345.5,248.589 345.466,248.479 345.466,248.327L345.466,242.435L343.702,242.435C343.55,242.435 343.44,242.401 343.372,242.333C343.304,242.265 343.27,242.155 343.27,242.003L343.27,240.551C343.27,240.399 343.304,240.289 343.372,240.221C343.44,240.153 343.55,240.119 343.702,240.119L350.038,240.119C350.19,240.119 350.3,240.153 350.368,240.221C350.436,240.289 350.47,240.399 350.47,240.551L350.47,242.003C350.47,242.155 350.436,242.265 350.368,242.333C350.3,242.401 350.19,242.435 350.038,242.435L348.274,242.435L348.274,248.327C348.274,248.479 348.24,248.589 348.172,248.657C348.104,248.725 347.994,248.759 347.842,248.759Z" style="fill-rule:nonzero;"/>
                <path d="M354.502,248.759L352.642,248.759C352.49,248.759 352.38,248.725 352.312,248.657C352.244,248.589 352.21,248.479 352.21,248.327L352.21,240.551C352.21,240.399 352.244,240.289 352.312,240.221C352.38,240.153 352.49,240.119 352.642,240.119L354.502,240.119C354.654,240.119 354.764,240.153 354.832,240.221C354.9,240.289 354.934,240.399 354.934,240.551L354.934,243.155L356.938,243.155L356.938,240.551C356.938,240.399 356.972,240.289 357.04,240.221C357.108,240.153 357.218,240.119 357.37,240.119L359.23,240.119C359.382,240.119 359.492,240.153 359.56,240.221C359.628,240.289 359.662,240.399 359.662,240.551L359.662,248.327C359.662,248.479 359.628,248.589 359.56,248.657C359.492,248.725 359.382,248.759 359.23,248.759L357.37,248.759C357.218,248.759 357.108,248.725 357.04,248.657C356.972,248.589 356.938,248.479 356.938,248.327L356.938,245.663L354.934,245.663L354.934,248.327C354.934,248.479 354.9,248.589 354.832,248.657C354.764,248.725 354.654,248.759 354.502,248.759Z" style="fill-rule:nonzero;"/>
                <path d="M362.134,248.759C361.982,248.759 361.872,248.725 361.804,248.657C361.736,248.589 361.702,248.479 361.702,248.327L361.702,246.899C361.702,246.747 361.736,246.637 361.804,246.569C361.872,246.501 361.982,246.467 362.134,246.467L363.322,246.467L363.322,242.435L362.134,242.435C361.982,242.435 361.872,242.401 361.804,242.333C361.736,242.265 361.702,242.155 361.702,242.003L361.702,240.551C361.702,240.399 361.736,240.289 361.804,240.221C361.872,240.153 361.982,240.119 362.134,240.119L367.246,240.119C367.398,240.119 367.508,240.153 367.576,240.221C367.644,240.289 367.678,240.399 367.678,240.551L367.678,242.003C367.678,242.155 367.644,242.265 367.576,242.333C367.508,242.401 367.398,242.435 367.246,242.435L366.082,242.435L366.082,246.467L367.246,246.467C367.398,246.467 367.508,246.501 367.576,246.569C367.644,246.637 367.678,246.747 367.678,246.899L367.678,248.327C367.678,248.479 367.644,248.589 367.576,248.657C367.508,248.725 367.398,248.759 367.246,248.759L362.134,248.759Z" style="fill-rule:nonzero;"/>
                <path d="M373.738,248.759L369.946,248.759C369.794,248.759 369.684,248.725 369.616,248.657C369.548,248.589 369.514,248.479 369.514,248.327L369.514,246.923C369.514,246.771 369.548,246.661 369.616,246.593C369.684,246.525 369.794,246.491 369.946,246.491L373.174,246.491C373.278,246.491 373.356,246.457 373.408,246.389C373.46,246.321 373.486,246.239 373.486,246.143C373.486,246.007 373.46,245.907 373.408,245.843C373.356,245.779 373.278,245.743 373.174,245.735L371.374,245.483C370.814,245.403 370.364,245.219 370.024,244.931C369.684,244.643 369.514,244.163 369.514,243.491L369.514,242.231C369.514,241.551 369.734,241.029 370.174,240.665C370.614,240.301 371.222,240.119 371.998,240.119L375.358,240.119C375.51,240.119 375.62,240.153 375.688,240.221C375.756,240.289 375.79,240.399 375.79,240.551L375.79,241.979C375.79,242.131 375.756,242.241 375.688,242.309C375.62,242.377 375.51,242.411 375.358,242.411L372.562,242.411C372.458,242.411 372.378,242.445 372.322,242.513C372.266,242.581 372.238,242.667 372.238,242.771C372.238,242.875 372.266,242.963 372.322,243.035C372.378,243.107 372.458,243.147 372.562,243.155L374.35,243.395C374.91,243.475 375.362,243.659 375.706,243.947C376.05,244.235 376.222,244.715 376.222,245.387L376.222,246.647C376.222,247.327 376,247.849 375.556,248.213C375.112,248.577 374.506,248.759 373.738,248.759Z" style="fill-rule:nonzero;"/>
                <path d="M383.854,248.759L380.926,248.759C379.926,248.759 379.184,248.559 378.7,248.159C378.216,247.759 377.974,247.143 377.974,246.311L377.974,242.579C377.974,241.747 378.216,241.129 378.7,240.725C379.184,240.321 379.926,240.119 380.926,240.119L383.854,240.119C384.006,240.119 384.116,240.153 384.184,240.221C384.252,240.289 384.286,240.399 384.286,240.551L384.286,242.003C384.286,242.155 384.252,242.265 384.184,242.333C384.116,242.401 384.006,242.435 383.854,242.435L381.442,242.435C381.194,242.435 381.01,242.485 380.89,242.585C380.77,242.685 380.71,242.835 380.71,243.035L380.71,245.891C380.71,246.091 380.77,246.237 380.89,246.329C381.01,246.421 381.194,246.467 381.442,246.467L383.854,246.467C384.006,246.467 384.116,246.501 384.184,246.569C384.252,246.637 384.286,246.747 384.286,246.899L384.286,248.327C384.286,248.479 384.252,248.589 384.184,248.657C384.116,248.725 384.006,248.759 383.854,248.759Z" style="fill-rule:nonzero;"/>
                <path d="M388.51,248.759L386.65,248.759C386.498,248.759 386.388,248.725 386.32,248.657C386.252,248.589 386.218,248.479 386.218,248.327L386.218,240.551C386.218,240.399 386.252,240.289 386.32,240.221C386.388,240.153 386.498,240.119 386.65,240.119L388.51,240.119C388.662,240.119 388.772,240.153 388.84,240.221C388.908,240.289 388.942,240.399 388.942,240.551L388.942,243.155L390.946,243.155L390.946,240.551C390.946,240.399 390.98,240.289 391.048,240.221C391.116,240.153 391.226,240.119 391.378,240.119L393.238,240.119C393.39,240.119 393.5,240.153 393.568,240.221C393.636,240.289 393.67,240.399 393.67,240.551L393.67,248.327C393.67,248.479 393.636,248.589 393.568,248.657C393.5,248.725 393.39,248.759 393.238,248.759L391.378,248.759C391.226,248.759 391.116,248.725 391.048,248.657C390.98,248.589 390.946,248.479 390.946,248.327L390.946,245.663L388.942,245.663L388.942,248.327C388.942,248.479 388.908,248.589 388.84,248.657C388.772,248.725 388.662,248.759 388.51,248.759Z" style="fill-rule:nonzero;"/>
                <path d="M401.902,248.759L396.334,248.759C396.182,248.759 396.072,248.725 396.004,248.657C395.936,248.589 395.902,248.479 395.902,248.327L395.902,240.551C395.902,240.399 395.936,240.289 396.004,240.221C396.072,240.153 396.182,240.119 396.334,240.119L401.902,240.119C402.054,240.119 402.164,240.153 402.232,240.221C402.3,240.289 402.334,240.399 402.334,240.551L402.334,241.955C402.334,242.107 402.3,242.217 402.232,242.285C402.164,242.353 402.054,242.387 401.902,242.387L398.59,242.387L398.59,243.311L400.93,243.311C401.082,243.311 401.192,243.345 401.26,243.413C401.328,243.481 401.362,243.591 401.362,243.743L401.362,245.027C401.362,245.179 401.328,245.289 401.26,245.357C401.192,245.425 401.082,245.459 400.93,245.459L398.59,245.459L398.59,246.491L401.902,246.491C402.054,246.491 402.164,246.525 402.232,246.593C402.3,246.661 402.334,246.771 402.334,246.923L402.334,248.327C402.334,248.479 402.3,248.589 402.232,248.657C402.164,248.725 402.054,248.759 401.902,248.759Z" style="fill-rule:nonzero;"/>
                <path d="M408.334,248.759L404.542,248.759C404.39,248.759 404.28,248.725 404.212,248.657C404.144,248.589 404.11,248.479 404.11,248.327L404.11,246.923C404.11,246.771 404.144,246.661 404.212,246.593C404.28,246.525 404.39,246.491 404.542,246.491L407.77,246.491C407.874,246.491 407.952,246.457 408.004,246.389C408.056,246.321 408.082,246.239 408.082,246.143C408.082,246.007 408.056,245.907 408.004,245.843C407.952,245.779 407.874,245.743 407.77,245.735L405.97,245.483C405.41,245.403 404.96,245.219 404.62,244.931C404.28,244.643 404.11,244.163 404.11,243.491L404.11,242.231C404.11,241.551 404.33,241.029 404.77,240.665C405.21,240.301 405.818,240.119 406.594,240.119L409.954,240.119C410.106,240.119 410.216,240.153 410.284,240.221C410.352,240.289 410.386,240.399 410.386,240.551L410.386,241.979C410.386,242.131 410.352,242.241 410.284,242.309C410.216,242.377 410.106,242.411 409.954,242.411L407.158,242.411C407.054,242.411 406.974,242.445 406.918,242.513C406.862,242.581 406.834,242.667 406.834,242.771C406.834,242.875 406.862,242.963 406.918,243.035C406.974,243.107 407.054,243.147 407.158,243.155L408.946,243.395C409.506,243.475 409.958,243.659 410.302,243.947C410.646,244.235 410.818,244.715 410.818,245.387L410.818,246.647C410.818,247.327 410.596,247.849 410.152,248.213C409.708,248.577 409.102,248.759 408.334,248.759Z" style="fill-rule:nonzero;"/>
                <path d="M337.288,260.056L335.5,260.056C335.348,260.056 335.238,260.022 335.17,259.954C335.102,259.886 335.068,259.776 335.068,259.624L335.068,251.848C335.068,251.696 335.102,251.586 335.17,251.518C335.238,251.45 335.348,251.416 335.5,251.416L337.432,251.416C337.56,251.416 337.666,251.444 337.75,251.5C337.834,251.556 337.912,251.648 337.984,251.776L339.064,253.732C339.104,253.804 339.138,253.856 339.166,253.888C339.194,253.92 339.232,253.936 339.28,253.936L339.388,253.936C339.436,253.936 339.474,253.92 339.502,253.888C339.53,253.856 339.564,253.804 339.604,253.732L340.672,251.776C340.744,251.648 340.822,251.556 340.906,251.5C340.99,251.444 341.096,251.416 341.224,251.416L343.168,251.416C343.32,251.416 343.43,251.45 343.498,251.518C343.566,251.586 343.6,251.696 343.6,251.848L343.6,259.624C343.6,259.776 343.566,259.886 343.498,259.954C343.43,260.022 343.32,260.056 343.168,260.056L341.32,260.056C341.168,260.056 341.058,260.022 340.99,259.954C340.922,259.886 340.888,259.776 340.888,259.624L340.888,255.4L340.18,256.708C340.108,256.844 340.022,256.942 339.922,257.002C339.822,257.062 339.696,257.092 339.544,257.092L339.064,257.092C338.912,257.092 338.786,257.062 338.686,257.002C338.586,256.942 338.5,256.844 338.428,256.708L337.72,255.4L337.72,259.624C337.72,259.776 337.686,259.886 337.618,259.954C337.55,260.022 337.44,260.056 337.288,260.056Z" style="fill-rule:nonzero;"/>
                <path d="M348.388,253.936L347.824,255.76L349.708,255.76L349.144,253.936C349.112,253.864 349.078,253.812 349.042,253.78C349.006,253.748 348.964,253.732 348.916,253.732L348.616,253.732C348.568,253.732 348.526,253.748 348.49,253.78C348.454,253.812 348.42,253.864 348.388,253.936ZM347.704,259.624C347.704,259.776 347.67,259.886 347.602,259.954C347.534,260.022 347.424,260.056 347.272,260.056L345.508,260.056C345.356,260.056 345.246,260.022 345.178,259.954C345.11,259.886 345.076,259.776 345.076,259.624L345.076,256.456C345.076,256.216 345.114,255.94 345.19,255.628C345.266,255.316 345.384,254.952 345.544,254.536L346.588,251.812C346.636,251.676 346.71,251.576 346.81,251.512C346.91,251.448 347.04,251.416 347.2,251.416L350.428,251.416C350.58,251.416 350.706,251.448 350.806,251.512C350.906,251.576 350.98,251.676 351.028,251.812L352.072,254.536C352.232,254.952 352.35,255.316 352.426,255.628C352.502,255.94 352.54,256.216 352.54,256.456L352.54,259.624C352.54,259.776 352.506,259.886 352.438,259.954C352.37,260.022 352.26,260.056 352.108,260.056L350.296,260.056C350.136,260.056 350.018,260.022 349.942,259.954C349.866,259.886 349.828,259.776 349.828,259.624L349.828,257.944L347.704,257.944L347.704,259.624Z" style="fill-rule:nonzero;"/>
                <path d="M356.728,253.576L356.728,255.112L357.628,255.112C357.836,255.112 357.976,255.058 358.048,254.95C358.12,254.842 358.156,254.708 358.156,254.548L358.156,254.14C358.156,253.98 358.12,253.846 358.048,253.738C357.976,253.63 357.836,253.576 357.628,253.576L356.728,253.576ZM356.296,260.056L354.448,260.056C354.296,260.056 354.186,260.022 354.118,259.954C354.05,259.886 354.016,259.776 354.016,259.624L354.016,251.848C354.016,251.696 354.05,251.586 354.118,251.518C354.186,251.45 354.296,251.416 354.448,251.416L358.444,251.416C359.34,251.416 359.958,251.602 360.298,251.974C360.638,252.346 360.808,252.828 360.808,253.42L360.808,253.972C360.808,254.308 360.758,254.594 360.658,254.83C360.558,255.066 360.384,255.236 360.136,255.34C360.568,255.388 360.918,255.564 361.186,255.868C361.454,256.172 361.588,256.576 361.588,257.08L361.588,259.624C361.588,259.776 361.554,259.886 361.486,259.954C361.418,260.022 361.308,260.056 361.156,260.056L359.296,260.056C359.144,260.056 359.034,260.022 358.966,259.954C358.898,259.886 358.864,259.776 358.864,259.624L358.864,257.788C358.864,257.612 358.83,257.482 358.762,257.398C358.694,257.314 358.576,257.272 358.408,257.272L356.728,257.272L356.728,259.624C356.728,259.776 356.694,259.886 356.626,259.954C356.558,260.022 356.448,260.056 356.296,260.056Z" style="fill-rule:nonzero;"/>
                <path d="M365.224,260.056L363.364,260.056C363.212,260.056 363.102,260.022 363.034,259.954C362.966,259.886 362.932,259.776 362.932,259.624L362.932,251.848C362.932,251.696 362.966,251.586 363.034,251.518C363.102,251.45 363.212,251.416 363.364,251.416L365.224,251.416C365.376,251.416 365.486,251.45 365.554,251.518C365.622,251.586 365.656,251.696 365.656,251.848L365.656,254.608L366.136,254.608L367.372,251.812C367.428,251.668 367.504,251.566 367.6,251.506C367.696,251.446 367.82,251.416 367.972,251.416L369.82,251.416C369.956,251.416 370.048,251.45 370.096,251.518C370.144,251.586 370.14,251.684 370.084,251.812L368.86,254.608C369.308,254.632 369.666,254.79 369.934,255.082C370.202,255.374 370.336,255.76 370.336,256.24L370.336,259.624C370.336,259.776 370.302,259.886 370.234,259.954C370.166,260.022 370.056,260.056 369.904,260.056L368.056,260.056C367.904,260.056 367.794,260.022 367.726,259.954C367.658,259.886 367.624,259.776 367.624,259.624L367.624,257.284C367.624,257.156 367.592,257.056 367.528,256.984C367.464,256.912 367.368,256.876 367.24,256.876L365.656,256.876L365.656,259.624C365.656,259.776 365.622,259.886 365.554,259.954C365.486,260.022 365.376,260.056 365.224,260.056Z" style="fill-rule:nonzero;"/>
                <path d="M377.884,260.056L372.316,260.056C372.164,260.056 372.054,260.022 371.986,259.954C371.918,259.886 371.884,259.776 371.884,259.624L371.884,251.848C371.884,251.696 371.918,251.586 371.986,251.518C372.054,251.45 372.164,251.416 372.316,251.416L377.884,251.416C378.036,251.416 378.146,251.45 378.214,251.518C378.282,251.586 378.316,251.696 378.316,251.848L378.316,253.252C378.316,253.404 378.282,253.514 378.214,253.582C378.146,253.65 378.036,253.684 377.884,253.684L374.572,253.684L374.572,254.608L376.912,254.608C377.064,254.608 377.174,254.642 377.242,254.71C377.31,254.778 377.344,254.888 377.344,255.04L377.344,256.324C377.344,256.476 377.31,256.586 377.242,256.654C377.174,256.722 377.064,256.756 376.912,256.756L374.572,256.756L374.572,257.788L377.884,257.788C378.036,257.788 378.146,257.822 378.214,257.89C378.282,257.958 378.316,258.068 378.316,258.22L378.316,259.624C378.316,259.776 378.282,259.886 378.214,259.954C378.146,260.022 378.036,260.056 377.884,260.056Z" style="fill-rule:nonzero;"/>
                <path d="M383.812,260.056L381.868,260.056C381.716,260.056 381.606,260.022 381.538,259.954C381.47,259.886 381.436,259.776 381.436,259.624L381.436,253.732L379.672,253.732C379.52,253.732 379.41,253.698 379.342,253.63C379.274,253.562 379.24,253.452 379.24,253.3L379.24,251.848C379.24,251.696 379.274,251.586 379.342,251.518C379.41,251.45 379.52,251.416 379.672,251.416L386.008,251.416C386.16,251.416 386.27,251.45 386.338,251.518C386.406,251.586 386.44,251.696 386.44,251.848L386.44,253.3C386.44,253.452 386.406,253.562 386.338,253.63C386.27,253.698 386.16,253.732 386.008,253.732L384.244,253.732L384.244,259.624C384.244,259.776 384.21,259.886 384.142,259.954C384.074,260.022 383.964,260.056 383.812,260.056Z" style="fill-rule:nonzero;"/>
                <path d="M387.844,260.056C387.692,260.056 387.582,260.022 387.514,259.954C387.446,259.886 387.412,259.776 387.412,259.624L387.412,258.196C387.412,258.044 387.446,257.934 387.514,257.866C387.582,257.798 387.692,257.764 387.844,257.764L389.032,257.764L389.032,253.732L387.844,253.732C387.692,253.732 387.582,253.698 387.514,253.63C387.446,253.562 387.412,253.452 387.412,253.3L387.412,251.848C387.412,251.696 387.446,251.586 387.514,251.518C387.582,251.45 387.692,251.416 387.844,251.416L392.956,251.416C393.108,251.416 393.218,251.45 393.286,251.518C393.354,251.586 393.388,251.696 393.388,251.848L393.388,253.3C393.388,253.452 393.354,253.562 393.286,253.63C393.218,253.698 393.108,253.732 392.956,253.732L391.792,253.732L391.792,257.764L392.956,257.764C393.108,257.764 393.218,257.798 393.286,257.866C393.354,257.934 393.388,258.044 393.388,258.196L393.388,259.624C393.388,259.776 393.354,259.886 393.286,259.954C393.218,260.022 393.108,260.056 392.956,260.056L387.844,260.056Z" style="fill-rule:nonzero;"/>
                <path d="M397.096,260.056L395.296,260.056C395.144,260.056 395.034,260.022 394.966,259.954C394.898,259.886 394.864,259.776 394.864,259.624L394.864,251.848C394.864,251.696 394.898,251.586 394.966,251.518C395.034,251.45 395.144,251.416 395.296,251.416L396.544,251.416C396.696,251.416 396.826,251.44 396.934,251.488C397.042,251.536 397.148,251.62 397.252,251.74L399.58,254.404L399.58,251.848C399.58,251.696 399.614,251.586 399.682,251.518C399.75,251.45 399.86,251.416 400.012,251.416L401.812,251.416C401.964,251.416 402.074,251.45 402.142,251.518C402.21,251.586 402.244,251.696 402.244,251.848L402.244,259.624C402.244,259.776 402.21,259.886 402.142,259.954C402.074,260.022 401.964,260.056 401.812,260.056L400.012,260.056C399.86,260.056 399.75,260.022 399.682,259.954C399.614,259.886 399.58,259.776 399.58,259.624L399.58,258.148L397.528,255.664L397.528,259.624C397.528,259.776 397.494,259.886 397.426,259.954C397.358,260.022 397.248,260.056 397.096,260.056Z" style="fill-rule:nonzero;"/>
                <path d="M410.5,260.056L406.72,260.056C405.72,260.056 404.978,259.856 404.494,259.456C404.01,259.056 403.768,258.44 403.768,257.608L403.768,253.864C403.768,253.032 404.01,252.416 404.494,252.016C404.978,251.616 405.72,251.416 406.72,251.416L409.72,251.416C409.872,251.416 409.982,251.45 410.05,251.518C410.118,251.586 410.152,251.696 410.152,251.848L410.152,253.3C410.152,253.452 410.118,253.562 410.05,253.63C409.982,253.698 409.872,253.732 409.72,253.732L407.224,253.732C406.976,253.732 406.792,253.782 406.672,253.882C406.552,253.982 406.492,254.132 406.492,254.332L406.492,257.2C406.492,257.4 406.538,257.548 406.63,257.644C406.722,257.74 406.86,257.788 407.044,257.788L408.208,257.788L408.208,255.916C408.208,255.764 408.242,255.654 408.31,255.586C408.378,255.518 408.488,255.484 408.64,255.484L410.5,255.484C410.652,255.484 410.762,255.518 410.83,255.586C410.898,255.654 410.932,255.764 410.932,255.916L410.932,259.624C410.932,259.776 410.898,259.886 410.83,259.954C410.762,260.022 410.652,260.056 410.5,260.056Z" style="fill-rule:nonzero;"/>
            </g>
            <g transform="matrix(1,0,0,1,-1158.62,-203.657)">
                <g transform="matrix(1,0,0,1,0,-13)">
                    <g transform="matrix(1.40449,0,0,1.40449,-523.154,-27.0271)">
                        <path d="M604.818,510.368L586.84,510.368C585.416,510.368 584.377,510.042 583.725,509.389C583.072,508.737 582.746,507.698 582.746,506.274L582.746,488.207C582.746,487.436 582.849,486.769 583.057,486.205C583.265,485.641 583.547,485.211 583.903,484.914L595.473,475.213C595.769,474.976 596.155,474.783 596.63,474.635C597.104,474.487 597.668,474.412 598.321,474.412L616.299,474.412C617.723,474.412 618.761,474.724 619.414,475.347C620.066,475.97 620.393,477.023 620.393,478.506L620.393,496.573C620.393,497.345 620.289,497.997 620.081,498.531C619.873,499.065 619.562,499.51 619.147,499.866L607.577,509.478C607.339,509.716 606.968,509.923 606.464,510.101C605.96,510.279 605.411,510.368 604.818,510.368Z" style="fill:rgb(139,93,244);"/>
                    </g>
                    <g transform="matrix(1.40449,0,0,1.40449,-523.154,-27.0271)">
                        <path d="M616.299,499.777C617.426,499.777 618.242,499.525 618.746,499.021C619.25,498.517 619.503,497.701 619.503,496.573L619.503,478.506C619.503,477.379 619.25,476.563 618.746,476.059C618.242,475.555 617.426,475.302 616.299,475.302L598.321,475.302C597.193,475.302 596.377,475.555 595.873,476.059C595.369,476.563 595.117,477.379 595.117,478.506L595.117,496.573C595.117,497.701 595.369,498.517 595.873,499.021C596.377,499.525 597.193,499.777 598.321,499.777L616.299,499.777Z" style="fill:rgb(250,248,255);"/>
                    </g>
                    <g transform="matrix(1.40449,0,0,1.40449,-523.154,-27.0271)">
                        <rect x="606.865" y="483.312" width="0.89" height="8.455" style="fill:rgb(139,93,244);"/>
                    </g>
                </g>
                <g>
                    <g transform="matrix(1.40449,0,0,1.40449,-523.154,-27.0271)">
                        <path d="M655.904,511.703C650.504,511.703 646.069,511.095 642.598,509.879C639.127,508.663 636.398,507.046 634.41,505.028C632.422,503.011 631.058,500.697 630.316,498.086C629.574,495.476 629.204,492.776 629.204,489.987L629.204,478.239C629.204,477.468 629.307,476.801 629.515,476.237C629.723,475.673 630.005,475.243 630.361,474.946L641.931,465.245C642.227,465.008 642.613,464.815 643.088,464.667C643.562,464.519 644.126,464.444 644.779,464.444L657.684,464.444C658.336,464.444 658.915,464.519 659.419,464.667C659.923,464.815 660.354,465.038 660.71,465.334L660.71,448.602C660.71,447.831 660.813,447.178 661.021,446.644C661.229,446.11 661.54,445.665 661.956,445.309L673.437,435.608C673.733,435.371 674.134,435.178 674.638,435.03C675.142,434.882 675.691,434.807 676.285,434.807L690.258,434.807C691.682,434.807 692.72,435.134 693.373,435.786C694.025,436.439 694.352,437.477 694.352,438.901L694.352,482.956C694.352,485.745 693.951,488.311 693.15,490.655C692.349,492.999 690.94,495.001 688.923,496.662L677.442,506.363C675.424,508.025 672.695,509.33 669.254,510.279C665.812,511.229 661.362,511.703 655.904,511.703Z" style="fill:rgb(139,93,244);"/>
                    </g>
                    <g transform="matrix(1.40449,0,0,1.40449,-523.154,-27.0271)">
                        <path d="M693.462,482.956L693.462,438.901C693.462,437.774 693.209,436.958 692.705,436.454C692.201,435.95 691.385,435.697 690.258,435.697L676.285,435.697C675.157,435.697 674.341,435.95 673.837,436.454C673.333,436.958 673.081,437.774 673.081,438.901L673.081,479.396C673.081,480.583 672.739,481.577 672.057,482.378C671.375,483.179 669.758,483.579 667.207,483.579C664.477,483.579 662.742,483.179 662,482.378C661.258,481.577 660.888,480.583 660.888,479.396L660.888,468.538C660.888,467.411 660.635,466.595 660.131,466.091C659.627,465.587 658.811,465.334 657.684,465.334L644.779,465.334C643.651,465.334 642.835,465.587 642.331,466.091C641.827,466.595 641.575,467.411 641.575,468.538L641.575,482.956C641.575,485.686 641.945,488.163 642.687,490.388C643.429,492.613 644.764,494.512 646.692,496.084C648.62,497.656 651.261,498.887 654.613,499.777C657.965,500.667 662.223,501.112 667.385,501.112C672.606,501.112 676.908,500.667 680.29,499.777C683.672,498.887 686.327,497.656 688.255,496.084C690.183,494.512 691.533,492.613 692.305,490.388C693.076,488.163 693.462,485.686 693.462,482.956Z" style="fill:rgb(250,248,255);"/>
                    </g>
                    <g transform="matrix(1.40449,0,0,1.40449,-523.154,-27.0271)">
                        <path d="M682.782,443.707L683.672,443.707L683.672,480.82C683.672,484.321 682.559,487.199 680.334,489.453C678.109,491.708 673.852,492.835 667.563,492.835C664.24,492.835 661.496,492.539 659.33,491.945C657.164,491.352 655.459,490.536 654.213,489.498C652.967,488.46 652.091,487.199 651.587,485.715C651.083,484.232 650.831,482.6 650.831,480.82L650.831,473.789L651.721,473.789L651.721,480.82C651.721,484.202 652.833,486.902 655.058,488.919C657.283,490.937 661.451,491.945 667.563,491.945C673.437,491.945 677.442,490.922 679.578,488.875C681.714,486.828 682.782,484.143 682.782,480.82L682.782,443.707Z" style="fill:rgb(139,93,244);"/>
                    </g>
                </g>
                <g>
                    <g transform="matrix(1.40449,0,0,1.40449,-523.154,-27.0271)">
                        <path d="M751.846,510.368L710.55,510.368C709.126,510.368 708.087,510.042 707.435,509.389C706.782,508.737 706.456,507.698 706.456,506.274L706.456,448.602C706.456,447.831 706.559,447.178 706.767,446.644C706.975,446.11 707.286,445.665 707.702,445.309L719.183,435.608C719.479,435.371 719.88,435.178 720.384,435.03C720.888,434.882 721.437,434.807 722.031,434.807L763.327,434.807C764.751,434.807 765.789,435.134 766.442,435.786C767.094,436.439 767.421,437.477 767.421,438.901L767.421,449.314C767.421,450.086 767.317,450.738 767.109,451.272C766.901,451.806 766.59,452.251 766.175,452.607L758.521,458.926C759.114,459.223 759.544,459.668 759.811,460.261C760.078,460.855 760.212,461.626 760.212,462.575L760.212,472.098C760.212,472.87 760.108,473.522 759.9,474.056C759.692,474.59 759.381,475.035 758.966,475.391L751.045,482.066L763.327,482.066C764.751,482.066 765.789,482.393 766.442,483.045C767.094,483.698 767.421,484.736 767.421,486.16L767.421,496.573C767.421,497.345 767.317,497.997 767.109,498.531C766.901,499.065 766.59,499.51 766.175,499.866L754.605,509.478C754.367,509.716 753.996,509.923 753.492,510.101C752.988,510.279 752.439,510.368 751.846,510.368Z" style="fill:rgb(139,93,244);"/>
                    </g>
                    <g transform="matrix(1.40449,0,0,1.40449,-523.154,-27.0271)">
                        <path d="M763.327,499.777C764.454,499.777 765.27,499.525 765.774,499.021C766.278,498.517 766.531,497.701 766.531,496.573L766.531,486.16C766.531,485.033 766.278,484.217 765.774,483.713C765.27,483.209 764.454,482.956 763.327,482.956L738.763,482.956L738.763,475.302L756.118,475.302C757.245,475.302 758.061,475.05 758.565,474.546C759.069,474.042 759.322,473.226 759.322,472.098L759.322,462.575C759.322,461.448 759.069,460.632 758.565,460.128C758.061,459.624 757.245,459.371 756.118,459.371L738.763,459.371L738.763,452.518L763.327,452.518C764.454,452.518 765.27,452.266 765.774,451.762C766.278,451.258 766.531,450.442 766.531,449.314L766.531,438.901C766.531,437.774 766.278,436.958 765.774,436.454C765.27,435.95 764.454,435.697 763.327,435.697L722.031,435.697C720.903,435.697 720.087,435.95 719.583,436.454C719.079,436.958 718.827,437.774 718.827,438.901L718.827,496.573C718.827,497.701 719.079,498.517 719.583,499.021C720.087,499.525 720.903,499.777 722.031,499.777L763.327,499.777Z" style="fill:rgb(250,248,255);"/>
                    </g>
                    <g transform="matrix(1.40449,0,0,1.40449,-523.154,-27.0271)">
                        <path d="M758.521,490.877L758.521,491.767L728.528,491.767L728.528,443.707L758.521,443.707L758.521,444.597L729.418,444.597L729.418,466.936L751.312,466.936L751.312,467.826L729.418,467.826L729.418,490.877L758.521,490.877Z" style="fill:rgb(139,93,244);"/>
                    </g>
                </g>
                <g>
                    <g transform="matrix(1.40449,0,0,1.40449,-523.154,-27.0271)">
                        <path d="M809.34,510.368L794.922,510.368C793.498,510.368 792.459,510.042 791.807,509.389C791.154,508.737 790.828,507.698 790.828,506.274L790.828,463.465L778.635,463.465C777.211,463.465 776.172,463.139 775.52,462.486C774.867,461.834 774.541,460.795 774.541,459.371L774.541,448.602C774.541,447.831 774.644,447.178 774.852,446.644C775.06,446.11 775.371,445.665 775.787,445.309L787.268,435.608C787.564,435.371 787.965,435.178 788.469,435.03C788.973,434.882 789.522,434.807 790.116,434.807L837.108,434.807C838.532,434.807 839.57,435.134 840.223,435.786C840.875,436.439 841.202,437.477 841.202,438.901L841.202,449.67C841.202,450.442 841.098,451.094 840.89,451.628C840.682,452.162 840.371,452.607 839.956,452.963L828.386,462.575C828.148,462.813 827.777,463.02 827.273,463.198C826.769,463.376 826.22,463.465 825.627,463.465L824.915,463.465L824.915,496.573C824.915,497.345 824.811,497.997 824.603,498.531C824.395,499.065 824.084,499.51 823.669,499.866L812.099,509.478C811.861,509.716 811.49,509.923 810.986,510.101C810.482,510.279 809.933,510.368 809.34,510.368Z" style="fill:rgb(139,93,244);"/>
                    </g>
                    <g transform="matrix(1.40449,0,0,1.40449,-523.154,-27.0271)">
                        <path d="M820.821,499.777C821.948,499.777 822.764,499.525 823.268,499.021C823.772,498.517 824.025,497.701 824.025,496.573L824.025,452.874L837.108,452.874C838.235,452.874 839.051,452.622 839.555,452.118C840.059,451.614 840.312,450.798 840.312,449.67L840.312,438.901C840.312,437.774 840.059,436.958 839.555,436.454C839.051,435.95 838.235,435.697 837.108,435.697L790.116,435.697C788.988,435.697 788.172,435.95 787.668,436.454C787.164,436.958 786.912,437.774 786.912,438.901L786.912,449.67C786.912,450.798 787.164,451.614 787.668,452.118C788.172,452.622 788.988,452.874 790.116,452.874L803.199,452.874L803.199,496.573C803.199,497.701 803.451,498.517 803.955,499.021C804.459,499.525 805.275,499.777 806.403,499.777L820.821,499.777Z" style="fill:rgb(250,248,255);"/>
                    </g>
                    <g transform="matrix(1.40449,0,0,1.40449,-523.154,-27.0271)">
                        <path d="M813.167,491.767L813.167,444.597L794.922,444.597L794.922,443.707L832.302,443.707L832.302,444.597L814.057,444.597L814.057,491.767L813.167,491.767Z" style="fill:rgb(139,93,244);"/>
                    </g>
                </g>
                <g>
                    <g transform="matrix(1.40449,0,0,1.40449,-523.154,-27.0271)">
                        <path d="M895.403,510.368L851.259,510.368C849.835,510.368 848.796,510.042 848.144,509.389C847.491,508.737 847.165,507.698 847.165,506.274L847.165,494.348C847.165,493.043 847.357,491.931 847.743,491.011C848.129,490.091 848.737,489.186 849.568,488.296L870.038,463.465L852.861,463.465C851.437,463.465 850.398,463.139 849.746,462.486C849.093,461.834 848.767,460.795 848.767,459.371L848.767,448.602C848.767,447.831 848.87,447.178 849.078,446.644C849.286,446.11 849.597,445.665 850.013,445.309L861.494,435.608C861.79,435.371 862.191,435.178 862.695,435.03C863.199,434.882 863.748,434.807 864.342,434.807L905.282,434.807C906.706,434.807 907.744,435.134 908.397,435.786C909.049,436.439 909.376,437.477 909.376,438.901L909.376,452.162C909.376,453.468 909.183,454.595 908.797,455.544C908.411,456.494 907.803,457.413 906.973,458.303L887.482,481.888L906.884,481.888C908.308,481.888 909.346,482.215 909.999,482.867C910.651,483.52 910.978,484.558 910.978,485.982L910.978,496.573C910.978,497.345 910.874,497.997 910.666,498.531C910.458,499.065 910.147,499.51 909.732,499.866L898.162,509.478C897.924,509.716 897.553,509.923 897.049,510.101C896.545,510.279 895.996,510.368 895.403,510.368Z" style="fill:rgb(139,93,244);"/>
                    </g>
                    <g transform="matrix(1.40449,0,0,1.40449,-523.154,-27.0271)">
                        <path d="M906.884,499.777C908.011,499.777 908.827,499.525 909.331,499.021C909.835,498.517 910.088,497.701 910.088,496.573L910.088,485.982C910.088,484.855 909.835,484.039 909.331,483.535C908.827,483.031 908.011,482.778 906.884,482.778L885.613,482.778L906.261,457.769C907.032,456.939 907.596,456.093 907.952,455.233C908.308,454.373 908.486,453.349 908.486,452.162L908.486,438.901C908.486,437.774 908.233,436.958 907.729,436.454C907.225,435.95 906.409,435.697 905.282,435.697L864.342,435.697C863.214,435.697 862.398,435.95 861.894,436.454C861.39,436.958 861.138,437.774 861.138,438.901L861.138,449.67C861.138,450.798 861.39,451.614 861.894,452.118C862.398,452.622 863.214,452.874 864.342,452.874L883.388,452.874L861.761,479.129C860.989,479.96 860.426,480.806 860.07,481.666C859.714,482.526 859.536,483.52 859.536,484.647L859.536,496.573C859.536,497.701 859.788,498.517 860.292,499.021C860.796,499.525 861.612,499.777 862.74,499.777L906.884,499.777Z" style="fill:rgb(250,248,255);"/>
                    </g>
                    <g transform="matrix(1.40449,0,0,1.40449,-523.154,-27.0271)">
                        <path d="M897.539,451.361L871.462,484.825C871.046,485.359 870.735,485.804 870.527,486.16C870.319,486.516 870.216,486.991 870.216,487.584L870.216,488.83C870.216,489.661 870.408,490.21 870.794,490.477C871.18,490.744 871.61,490.877 872.085,490.877L902.078,490.877L902.078,491.767L872.085,491.767C871.135,491.767 870.438,491.53 869.993,491.055C869.548,490.581 869.326,489.839 869.326,488.83L869.326,487.406C869.326,486.754 869.474,486.175 869.771,485.671C870.067,485.167 870.423,484.647 870.839,484.113L896.916,450.649C897.331,450.115 897.642,449.67 897.85,449.314C898.058,448.958 898.162,448.484 898.162,447.89L898.162,446.644C898.162,445.814 897.969,445.265 897.583,444.998C897.197,444.731 896.767,444.597 896.293,444.597L869.148,444.597L869.148,443.707L896.293,443.707C897.242,443.707 897.939,443.945 898.384,444.419C898.829,444.894 899.052,445.636 899.052,446.644L899.052,448.068C899.052,448.721 898.903,449.3 898.607,449.804C898.31,450.308 897.954,450.827 897.539,451.361Z" style="fill:rgb(139,93,244);"/>
                    </g>
                </g>
                <g>
                    <g transform="matrix(1.40449,0,0,1.40449,-523.154,-27.0271)">
                        <path d="M951.74,510.368L937.322,510.368C935.898,510.368 934.859,510.042 934.207,509.389C933.554,508.737 933.228,507.698 933.228,506.274L933.228,463.465L921.035,463.465C919.611,463.465 918.572,463.139 917.92,462.486C917.267,461.834 916.941,460.795 916.941,459.371L916.941,448.602C916.941,447.831 917.044,447.178 917.252,446.644C917.46,446.11 917.771,445.665 918.187,445.309L929.668,435.608C929.964,435.371 930.365,435.178 930.869,435.03C931.373,434.882 931.922,434.807 932.516,434.807L979.508,434.807C980.932,434.807 981.97,435.134 982.623,435.786C983.275,436.439 983.602,437.477 983.602,438.901L983.602,449.67C983.602,450.442 983.498,451.094 983.29,451.628C983.082,452.162 982.771,452.607 982.356,452.963L970.786,462.575C970.548,462.813 970.177,463.02 969.673,463.198C969.169,463.376 968.62,463.465 968.027,463.465L967.315,463.465L967.315,496.573C967.315,497.345 967.211,497.997 967.003,498.531C966.795,499.065 966.484,499.51 966.069,499.866L954.499,509.478C954.261,509.716 953.89,509.923 953.386,510.101C952.882,510.279 952.333,510.368 951.74,510.368Z" style="fill:rgb(139,93,244);"/>
                    </g>
                    <g transform="matrix(1.40449,0,0,1.40449,-523.154,-27.0271)">
                        <path d="M963.221,499.777C964.348,499.777 965.164,499.525 965.668,499.021C966.172,498.517 966.425,497.701 966.425,496.573L966.425,452.874L979.508,452.874C980.635,452.874 981.451,452.622 981.955,452.118C982.459,451.614 982.712,450.798 982.712,449.67L982.712,438.901C982.712,437.774 982.459,436.958 981.955,436.454C981.451,435.95 980.635,435.697 979.508,435.697L932.516,435.697C931.388,435.697 930.572,435.95 930.068,436.454C929.564,436.958 929.312,437.774 929.312,438.901L929.312,449.67C929.312,450.798 929.564,451.614 930.068,452.118C930.572,452.622 931.388,452.874 932.516,452.874L945.599,452.874L945.599,496.573C945.599,497.701 945.851,498.517 946.355,499.021C946.859,499.525 947.675,499.777 948.803,499.777L963.221,499.777Z" style="fill:rgb(250,248,255);"/>
                    </g>
                    <g transform="matrix(1.40449,0,0,1.40449,-523.154,-27.0271)">
                        <path d="M955.567,491.767L955.567,444.597L937.322,444.597L937.322,443.707L974.702,443.707L974.702,444.597L956.457,444.597L956.457,491.767L955.567,491.767Z" style="fill:rgb(139,93,244);"/>
                    </g>
                </g>
            </g>
        </g>
    </g>
</svg>
